<svg width="820" height="360" viewBox="0 0 820 360" fill="none" xmlns="http://www.w3.org/2000/svg">
    <defs>
        <linearGradient id="card_grad" x1="0%" y1="0%" x2="100%" y2="100%">
            <stop offset="0%" style="stop-color:#161b22;stop-opacity:1" />
            <stop offset="100%" style="stop-color:#0d1117;stop-opacity:1" />
        </linearGradient>
    </defs>
    <style>
        .title { font: 700 18px 'Inter', -apple-system, BlinkMacSystemFont, 'Segoe UI', Roboto, sans-serif; fill: #f0f6fc; }
        .cat-label { font: 600 13px 'Inter', sans-serif; fill: #58a6ff; text-transform: uppercase; letter-spacing: 1px; }
        .tech-name { font: 500 14px 'Inter', sans-serif; fill: #f0f6fc; }
        .tech-level { font: 400 11px 'Inter', sans-serif; fill: #8b949e; }
        .indicator { fill: #58a6ff; filter: drop-shadow(0 0 3px #58a6ff); }
    </style>
    
    <rect width="820" height="360" rx="16" fill="#08090a" stroke="#1f2124" stroke-width="1"/>
    
    <text x="30" y="45" class="title">Technical Arsenal &amp; Ecosystem</text>
    <circle cx="280" cy="40" r="4" fill="#3fb950" />
    <text x="290" y="44" font-family="Inter" font-size="11" fill="#3fb950">Active in Production</text>
    <rect x="30" y="85" width="180" height="240" rx="12" fill="url(#card_grad)" stroke="#1f2124"/><text x="45" y="115" class="cat-label">Frontend</text><circle cx="50" cy="146" r="3" class="indicator"/><text x="65" y="150" class="tech-name">React</text><text x="65" y="166" class="tech-level">Expert</text><circle cx="50" cy="188" r="3" class="indicator"/><text x="65" y="192" class="tech-name">Flutter</text><text x="65" y="208" class="tech-level">Expert</text><circle cx="50" cy="230" r="3" class="indicator"/><text x="65" y="234" class="tech-name">Redux</text><text x="65" y="250" class="tech-level">Expert</text><circle cx="50" cy="272" r="3" class="indicator"/><text x="65" y="276" class="tech-name">TypeScript</text><text x="65" y="292" class="tech-level">Expert</text><rect x="225" y="85" width="180" height="240" rx="12" fill="url(#card_grad)" stroke="#1f2124"/><text x="240" y="115" class="cat-label">Backend</text><circle cx="245" cy="146" r="3" class="indicator"/><text x="260" y="150" class="tech-name">Node.js</text><text x="260" y="166" class="tech-level">Expert</text><circle cx="245" cy="188" r="3" class="indicator"/><text x="260" y="192" class="tech-name">Laravel</text><text x="260" y="208" class="tech-level">Expert</text><circle cx="245" cy="230" r="3" class="indicator"/><text x="260" y="234" class="tech-name">Python</text><text x="260" y="250" class="tech-level">Advanced</text><circle cx="245" cy="272" r="3" class="indicator"/><text x="260" y="276" class="tech-name">gRPC</text><text x="260" y="292" class="tech-level">Advanced</text><rect x="420" y="85" width="180" height="240" rx="12" fill="url(#card_grad)" stroke="#1f2124"/><text x="435" y="115" class="cat-label">Cloud</text><circle cx="440" cy="146" r="3" class="indicator"/><text x="455" y="150" class="tech-name">GCP</text><text x="455" y="166" class="tech-level">Expert</text><circle cx="440" cy="188" r="3" class="indicator"/><text x="455" y="192" class="tech-name">PostgreSQL</text><text x="455" y="208" class="tech-level">Expert</text><circle cx="440" cy="230" r="3" class="indicator"/><text x="455" y="234" class="tech-name">MongoDB</text><text x="455" y="250" class="tech-level">Advanced</text><circle cx="440" cy="272" r="3" class="indicator"/><text x="455" y="276" class="tech-name">Firestore</text><text x="455" y="292" class="tech-level">Expert</text><rect x="615" y="85" width="180" height="240" rx="12" fill="url(#card_grad)" stroke="#1f2124"/><text x="630" y="115" class="cat-label">Engineering</text><circle cx="635" cy="146" r="3" class="indicator"/><text x="650" y="150" class="tech-name">Docker</text><text x="650" y="166" class="tech-level">Expert</text><circle cx="635" cy="188" r="3" class="indicator"/><text x="650" y="192" class="tech-name">CI/CD</text><text x="650" y="208" class="tech-level">Expert</text><circle cx="635" cy="230" r="3" class="indicator"/><text x="650" y="234" class="tech-name">REST APIs</text><text x="650" y="250" class="tech-level">Expert</text><circle cx="635" cy="272" r="3" class="indicator"/><text x="650" y="276" class="tech-name">Git</text><text x="650" y="292" class="tech-level">Expert</text>
    <text x="790" y="340" font-family="Inter" font-size="10" fill="#8b949e" text-anchor="end">Engineered for Scalability &amp; Performance</text>
    </svg>