<svg width="800" height="420" viewBox="0 0 800 420" fill="none" xmlns="http://www.w3.org/2000/svg">
    <style>
        .title { font: 600 20px 'Segoe UI', Ubuntu, Sans-Serif; fill: #58a6ff; }
        .category-title { font: 600 16px 'Segoe UI', Ubuntu, Sans-Serif; fill: #c9d1d9; }
        .tech-name { font: 400 14px 'Segoe UI', Ubuntu, Sans-Serif; fill: #c9d1d9; }
        .stat-bar-bg { fill: #30363d; rx: 4; }
        .stat-bar-fill { fill: #3fb950; rx: 4; }
        .score-text { font: 600 12px 'Segoe UI', Ubuntu, Sans-Serif; fill: #3fb950; text-anchor: end; }
        .verified-badge { font: 600 10px 'Segoe UI', Ubuntu, Sans-Serif; fill: #3fb950; }
    </style>
    
    <rect width="800" height="420" rx="12" fill="#0d1117" stroke="#30363d" stroke-width="1"/>
    <text x="25" y="40" class="title">Full-Stack Job Match Scorecard</text>
    <text x="25" y="65" font-family="Segoe UI" font-size="12" fill="#8b949e">Real-time repository analysis targeting Full Stack Developer requirements</text>
    <rect x="25" y="100" width="340" height="140" rx="8" fill="#161b22" stroke="#30363d"/><text x="40" y="125" class="category-title">Frontend</text><text x="40" y="150" class="tech-name">React</text><rect x="145" y="140" width="150" height="8" class="stat-bar-bg"/><rect x="145" y="140" width="18.75" height="8" class="stat-bar-fill"/><text x="355" y="150" class="score-text">Verified</text><text x="40" y="178" class="tech-name">Flutter</text><rect x="145" y="168" width="150" height="8" class="stat-bar-bg"/><rect x="145" y="168" width="37.5" height="8" class="stat-bar-fill"/><text x="355" y="178" class="score-text">Verified</text><text x="40" y="206" class="tech-name">Redux</text><rect x="145" y="196" width="150" height="8" class="stat-bar-bg"/><rect x="145" y="196" width="5" height="8" class="stat-bar-fill"/><text x="355" y="206" class="score-text">Ready</text><rect x="385" y="100" width="340" height="140" rx="8" fill="#161b22" stroke="#30363d"/><text x="400" y="125" class="category-title">Backend</text><text x="400" y="150" class="tech-name">Node.js</text><rect x="505" y="140" width="150" height="8" class="stat-bar-bg"/><rect x="505" y="140" width="150" height="8" class="stat-bar-fill"/><text x="715" y="150" class="score-text">Verified</text><text x="400" y="178" class="tech-name">Express</text><rect x="505" y="168" width="150" height="8" class="stat-bar-bg"/><rect x="505" y="168" width="150" height="8" class="stat-bar-fill"/><text x="715" y="178" class="score-text">Verified</text><text x="400" y="206" class="tech-name">Laravel</text><rect x="505" y="196" width="150" height="8" class="stat-bar-bg"/><rect x="505" y="196" width="150" height="8" class="stat-bar-fill"/><text x="715" y="206" class="score-text">Verified</text><text x="400" y="234" class="tech-name">Python</text><rect x="505" y="224" width="150" height="8" class="stat-bar-bg"/><rect x="505" y="224" width="150" height="8" class="stat-bar-fill"/><text x="715" y="234" class="score-text">Verified</text><rect x="25" y="260" width="340" height="140" rx="8" fill="#161b22" stroke="#30363d"/><text x="40" y="285" class="category-title">API/Data</text><text x="40" y="310" class="tech-name">REST APIs</text><rect x="145" y="300" width="150" height="8" class="stat-bar-bg"/><rect x="145" y="300" width="5" height="8" class="stat-bar-fill"/><text x="355" y="310" class="score-text">Ready</text><text x="40" y="338" class="tech-name">gRPC</text><rect x="145" y="328" width="150" height="8" class="stat-bar-bg"/><rect x="145" y="328" width="5" height="8" class="stat-bar-fill"/><text x="355" y="338" class="score-text">Ready</text><text x="40" y="366" class="tech-name">MongoDB</text><rect x="145" y="356" width="150" height="8" class="stat-bar-bg"/><rect x="145" y="356" width="5" height="8" class="stat-bar-fill"/><text x="355" y="366" class="score-text">Ready</text><text x="40" y="394" class="tech-name">Firestore</text><rect x="145" y="384" width="150" height="8" class="stat-bar-bg"/><rect x="145" y="384" width="5" height="8" class="stat-bar-fill"/><text x="355" y="394" class="score-text">Ready</text><text x="40" y="422" class="tech-name">Cloud SQL</text><rect x="145" y="412" width="150" height="8" class="stat-bar-bg"/><rect x="145" y="412" width="5" height="8" class="stat-bar-fill"/><text x="355" y="422" class="score-text">Ready</text><rect x="385" y="260" width="340" height="140" rx="8" fill="#161b22" stroke="#30363d"/><text x="400" y="285" class="category-title">Cloud</text><text x="400" y="310" class="tech-name">GCP</text><rect x="505" y="300" width="150" height="8" class="stat-bar-bg"/><rect x="505" y="300" width="5" height="8" class="stat-bar-fill"/><text x="715" y="310" class="score-text">Ready</text><text x="400" y="338" class="tech-name">Git</text><rect x="505" y="328" width="150" height="8" class="stat-bar-bg"/><rect x="505" y="328" width="56.25" height="8" class="stat-bar-fill"/><text x="715" y="338" class="score-text">Verified</text>
    <line x1="25" y1="360" x2="775" y2="360" stroke="#30363d" />
    <text x="25" y="390" font-family="Segoe UI" font-size="16" font-weight="600" fill="#c9d1d9">Overall Job Alignment:</text>
    <text x="200" y="390" font-family="Segoe UI" font-size="24" font-weight="800" fill="#3fb950">50%</text>
    <text x="775" y="390" font-family="Segoe UI" font-size="12" fill="#8b949e" text-anchor="end">Updated via GitHub Actions</text>
    </svg>