<svg width="820" height="360" viewBox="0 0 820 360" fill="none" xmlns="http://www.w3.org/2000/svg">
    <style>
        .title { font: 700 20px 'Segoe UI', Ubuntu, Sans-Serif; fill: #c9d1d9; }
        .cat-label { font: 600 13px 'Segoe UI', Sans-Serif; fill: #3fb950; text-transform: uppercase; letter-spacing: 1.5px; }
        .tech-name { font: 600 15px 'Segoe UI', Sans-Serif; fill: #c9d1d9; }
        .tech-level { font: 400 12px 'Segoe UI', Sans-Serif; fill: #8b949e; }
        .indicator { fill: #3fb950; }
        .status-text { font: 600 12px 'Segoe UI', Sans-Serif; fill: #3fb950; }
    </style>
    
    <rect width="820" height="360" rx="12" fill="#0d1117" stroke="#30363d" stroke-width="1"/>
    
    <!-- Header -->
    <text x="30" y="45" class="title">Technical Arsenal &amp; Ecosystem</text>
    <circle cx="335" cy="39" r="4" fill="#3fb950" />
    <text x="345" y="44" class="status-text">Active in Production</text>
    <rect x="30" y="85" width="180" height="240" rx="10" fill="#161b22" stroke="#30363d"/><text x="50" y="115" class="cat-label">Frontend</text><circle cx="50" cy="150" r="3" class="indicator"/><text x="65" y="155" class="tech-name">React</text><text x="65" y="173" class="tech-level">Expert</text><circle cx="50" cy="192" r="3" class="indicator"/><text x="65" y="197" class="tech-name">Flutter</text><text x="65" y="215" class="tech-level">Expert</text><circle cx="50" cy="234" r="3" class="indicator"/><text x="65" y="239" class="tech-name">Redux</text><text x="65" y="257" class="tech-level">Expert</text><circle cx="50" cy="276" r="3" class="indicator"/><text x="65" y="281" class="tech-name">TypeScript</text><text x="65" y="299" class="tech-level">Expert</text><rect x="225" y="85" width="180" height="240" rx="10" fill="#161b22" stroke="#30363d"/><text x="245" y="115" class="cat-label">Backend</text><circle cx="245" cy="150" r="3" class="indicator"/><text x="260" y="155" class="tech-name">Node.js</text><text x="260" y="173" class="tech-level">Expert</text><circle cx="245" cy="192" r="3" class="indicator"/><text x="260" y="197" class="tech-name">Laravel</text><text x="260" y="215" class="tech-level">Expert</text><circle cx="245" cy="234" r="3" class="indicator"/><text x="260" y="239" class="tech-name">Python</text><text x="260" y="257" class="tech-level">Advanced</text><circle cx="245" cy="276" r="3" class="indicator"/><text x="260" y="281" class="tech-name">gRPC</text><text x="260" y="299" class="tech-level">Advanced</text><rect x="420" y="85" width="180" height="240" rx="10" fill="#161b22" stroke="#30363d"/><text x="440" y="115" class="cat-label">Cloud</text><circle cx="440" cy="150" r="3" class="indicator"/><text x="455" y="155" class="tech-name">GCP</text><text x="455" y="173" class="tech-level">Expert</text><circle cx="440" cy="192" r="3" class="indicator"/><text x="455" y="197" class="tech-name">PostgreSQL</text><text x="455" y="215" class="tech-level">Expert</text><circle cx="440" cy="234" r="3" class="indicator"/><text x="455" y="239" class="tech-name">MongoDB</text><text x="455" y="257" class="tech-level">Advanced</text><circle cx="440" cy="276" r="3" class="indicator"/><text x="455" y="281" class="tech-name">Firestore</text><text x="455" y="299" class="tech-level">Expert</text><rect x="615" y="85" width="180" height="240" rx="10" fill="#161b22" stroke="#30363d"/><text x="635" y="115" class="cat-label">Engineering</text><circle cx="635" cy="150" r="3" class="indicator"/><text x="650" y="155" class="tech-name">Docker</text><text x="650" y="173" class="tech-level">Expert</text><circle cx="635" cy="192" r="3" class="indicator"/><text x="650" y="197" class="tech-name">CI/CD</text><text x="650" y="215" class="tech-level">Expert</text><circle cx="635" cy="234" r="3" class="indicator"/><text x="650" y="239" class="tech-name">REST APIs</text><text x="650" y="257" class="tech-level">Expert</text><circle cx="635" cy="276" r="3" class="indicator"/><text x="650" y="281" class="tech-name">Git</text><text x="650" y="299" class="tech-level">Expert</text>
    <text x="790" y="340" font-family="Segoe UI, Sans-Serif" font-size="11" fill="#8b949e" text-anchor="end">Verified Full-Stack Architecture</text>
    </svg>