<svg width="850" height="380" viewBox="0 0 850 380" fill="none" xmlns="http://www.w3.org/2000/svg">
    <defs>
        <linearGradient id="bg_grad" x1="0" y1="0" x2="850" y2="380" gradientUnits="userSpaceOnUse">
            <stop stop-color="#0f172a"/>
            <stop offset="1" stop-color="#020617"/>
        </linearGradient>
        <filter id="blur" x="0" y="0">
            <feGaussianBlur in="SourceGraphic" stdDeviation="5" />
        </filter>
    </defs>
    
    <!-- Background -->
    <rect width="850" height="380" rx="16" fill="url(#bg_grad)" />
    <rect width="850" height="380" rx="16" stroke="rgba(148, 163, 184, 0.2)" stroke-width="1"/>
    
    <!-- Header -->
    <text x="40" y="50" font-family="Inter, system-ui, sans-serif" font-weight="700" font-size="22" fill="#f8fafc">Technical Core &amp; Specializations</text>
    <rect x="40" y="65" width="60" height="4" rx="2" fill="#38bdf8" />
    
    <g transform="translate(650, 45)">
        <circle cx="0" cy="-5" r="4" fill="#4ade80">
            <animate attributeName="opacity" values="1;0.4;1" dur="2s" repeatCount="indefinite" />
        </circle>
        <text x="12" y="0" font-family="Inter, sans-serif" font-weight="600" font-size="12" fill="#4ade80">Production Ready</text>
    </g>
    <g transform="translate(40, 100)"><rect width="185" height="240" rx="12" fill="rgba(30, 41, 59, 0.5)" stroke="rgba(148, 163, 184, 0.2)" stroke-width="1"/><text x="15" y="30" font-family="Inter, sans-serif" font-weight="700" font-size="11" fill="#38bdf8" text-transform="uppercase" letter-spacing="1">Systems & Backend</text><text x="15" y="70" font-family="Inter, sans-serif" font-weight="600" font-size="14" fill="#f8fafc">Laravel Internals</text><text x="15" y="88" font-family="Inter, sans-serif" font-weight="400" font-size="11" fill="#4ade80">Expert</text><rect x="15" y="95" width="155" height="2" rx="1" fill="rgba(148, 163, 184, 0.2)"/><rect x="15" y="95" width="155.0" height="2" rx="1" fill="#38bdf8"/><text x="15" y="112" font-family="Inter, sans-serif" font-weight="600" font-size="14" fill="#f8fafc">Node.js / Bun</text><text x="15" y="130" font-family="Inter, sans-serif" font-weight="400" font-size="11" fill="#4ade80">Expert</text><rect x="15" y="137" width="155" height="2" rx="1" fill="rgba(148, 163, 184, 0.2)"/><rect x="15" y="137" width="155.0" height="2" rx="1" fill="#38bdf8"/><text x="15" y="154" font-family="Inter, sans-serif" font-weight="600" font-size="14" fill="#f8fafc">Python / gRPC</text><text x="15" y="172" font-family="Inter, sans-serif" font-weight="400" font-size="11" fill="#94a3b8">Advanced</text><rect x="15" y="179" width="155" height="2" rx="1" fill="rgba(148, 163, 184, 0.2)"/><rect x="15" y="179" width="124.0" height="2" rx="1" fill="#38bdf8"/><text x="15" y="196" font-family="Inter, sans-serif" font-weight="600" font-size="14" fill="#f8fafc">Rust / C++</text><text x="15" y="214" font-family="Inter, sans-serif" font-weight="400" font-size="11" fill="#94a3b8">Proficient</text><rect x="15" y="221" width="155" height="2" rx="1" fill="rgba(148, 163, 184, 0.2)"/><rect x="15" y="221" width="93.0" height="2" rx="1" fill="#38bdf8"/></g><g transform="translate(240, 100)"><rect width="185" height="240" rx="12" fill="rgba(30, 41, 59, 0.5)" stroke="rgba(148, 163, 184, 0.2)" stroke-width="1"/><text x="15" y="30" font-family="Inter, sans-serif" font-weight="700" font-size="11" fill="#38bdf8" text-transform="uppercase" letter-spacing="1">Frontend & UI</text><text x="15" y="70" font-family="Inter, sans-serif" font-weight="600" font-size="14" fill="#f8fafc">React / Next.js</text><text x="15" y="88" font-family="Inter, sans-serif" font-weight="400" font-size="11" fill="#4ade80">Expert</text><rect x="15" y="95" width="155" height="2" rx="1" fill="rgba(148, 163, 184, 0.2)"/><rect x="15" y="95" width="155.0" height="2" rx="1" fill="#38bdf8"/><text x="15" y="112" font-family="Inter, sans-serif" font-weight="600" font-size="14" fill="#f8fafc">TypeScript</text><text x="15" y="130" font-family="Inter, sans-serif" font-weight="400" font-size="11" fill="#4ade80">Expert</text><rect x="15" y="137" width="155" height="2" rx="1" fill="rgba(148, 163, 184, 0.2)"/><rect x="15" y="137" width="155.0" height="2" rx="1" fill="#38bdf8"/><text x="15" y="154" font-family="Inter, sans-serif" font-weight="600" font-size="14" fill="#f8fafc">Flutter / Dart</text><text x="15" y="172" font-family="Inter, sans-serif" font-weight="400" font-size="11" fill="#4ade80">Expert</text><rect x="15" y="179" width="155" height="2" rx="1" fill="rgba(148, 163, 184, 0.2)"/><rect x="15" y="179" width="155.0" height="2" rx="1" fill="#38bdf8"/><text x="15" y="196" font-family="Inter, sans-serif" font-weight="600" font-size="14" fill="#f8fafc">Tailwind / CSS</text><text x="15" y="214" font-family="Inter, sans-serif" font-weight="400" font-size="11" fill="#4ade80">Expert</text><rect x="15" y="221" width="155" height="2" rx="1" fill="rgba(148, 163, 184, 0.2)"/><rect x="15" y="221" width="155.0" height="2" rx="1" fill="#38bdf8"/></g><g transform="translate(440, 100)"><rect width="185" height="240" rx="12" fill="rgba(30, 41, 59, 0.5)" stroke="rgba(148, 163, 184, 0.2)" stroke-width="1"/><text x="15" y="30" font-family="Inter, sans-serif" font-weight="700" font-size="11" fill="#38bdf8" text-transform="uppercase" letter-spacing="1">Cloud & DevOps</text><text x="15" y="70" font-family="Inter, sans-serif" font-weight="600" font-size="14" fill="#f8fafc">Docker / K8s</text><text x="15" y="88" font-family="Inter, sans-serif" font-weight="400" font-size="11" fill="#4ade80">Expert</text><rect x="15" y="95" width="155" height="2" rx="1" fill="rgba(148, 163, 184, 0.2)"/><rect x="15" y="95" width="155.0" height="2" rx="1" fill="#38bdf8"/><text x="15" y="112" font-family="Inter, sans-serif" font-weight="600" font-size="14" fill="#f8fafc">GCP / AWS</text><text x="15" y="130" font-family="Inter, sans-serif" font-weight="400" font-size="11" fill="#94a3b8">Advanced</text><rect x="15" y="137" width="155" height="2" rx="1" fill="rgba(148, 163, 184, 0.2)"/><rect x="15" y="137" width="124.0" height="2" rx="1" fill="#38bdf8"/><text x="15" y="154" font-family="Inter, sans-serif" font-weight="600" font-size="14" fill="#f8fafc">CI/CD Pipelines</text><text x="15" y="172" font-family="Inter, sans-serif" font-weight="400" font-size="11" fill="#4ade80">Expert</text><rect x="15" y="179" width="155" height="2" rx="1" fill="rgba(148, 163, 184, 0.2)"/><rect x="15" y="179" width="155.0" height="2" rx="1" fill="#38bdf8"/><text x="15" y="196" font-family="Inter, sans-serif" font-weight="600" font-size="14" fill="#f8fafc">PostgreSQL / Redis</text><text x="15" y="214" font-family="Inter, sans-serif" font-weight="400" font-size="11" fill="#4ade80">Expert</text><rect x="15" y="221" width="155" height="2" rx="1" fill="rgba(148, 163, 184, 0.2)"/><rect x="15" y="221" width="155.0" height="2" rx="1" fill="#38bdf8"/></g><g transform="translate(640, 100)"><rect width="185" height="240" rx="12" fill="rgba(30, 41, 59, 0.5)" stroke="rgba(148, 163, 184, 0.2)" stroke-width="1"/><text x="15" y="30" font-family="Inter, sans-serif" font-weight="700" font-size="11" fill="#38bdf8" text-transform="uppercase" letter-spacing="1">Security & Research</text><text x="15" y="70" font-family="Inter, sans-serif" font-weight="600" font-size="14" fill="#f8fafc">Pentesting / OSCP</text><text x="15" y="88" font-family="Inter, sans-serif" font-weight="400" font-size="11" fill="#4ade80">Expert</text><rect x="15" y="95" width="155" height="2" rx="1" fill="rgba(148, 163, 184, 0.2)"/><rect x="15" y="95" width="155.0" height="2" rx="1" fill="#38bdf8"/><text x="15" y="112" font-family="Inter, sans-serif" font-weight="600" font-size="14" fill="#f8fafc">Malware Analysis</text><text x="15" y="130" font-family="Inter, sans-serif" font-weight="400" font-size="11" fill="#94a3b8">Advanced</text><rect x="15" y="137" width="155" height="2" rx="1" fill="rgba(148, 163, 184, 0.2)"/><rect x="15" y="137" width="124.0" height="2" rx="1" fill="#38bdf8"/><text x="15" y="154" font-family="Inter, sans-serif" font-weight="600" font-size="14" fill="#f8fafc">SIEM / Splunk</text><text x="15" y="172" font-family="Inter, sans-serif" font-weight="400" font-size="11" fill="#94a3b8">Advanced</text><rect x="15" y="179" width="155" height="2" rx="1" fill="rgba(148, 163, 184, 0.2)"/><rect x="15" y="179" width="124.0" height="2" rx="1" fill="#38bdf8"/><text x="15" y="196" font-family="Inter, sans-serif" font-weight="600" font-size="14" fill="#f8fafc">Network Security</text><text x="15" y="214" font-family="Inter, sans-serif" font-weight="400" font-size="11" fill="#4ade80">Expert</text><rect x="15" y="221" width="155" height="2" rx="1" fill="rgba(148, 163, 184, 0.2)"/><rect x="15" y="221" width="155.0" height="2" rx="1" fill="#38bdf8"/></g>
    <text x="810" y="355" font-family="Inter, sans-serif" font-weight="500" font-size="11" fill="#94a3b8" text-anchor="end">Architecting Scalable Solutions @ 2024</text>
    </svg>