<svg width="850" height="420" viewBox="0 0 850 420" fill="none" xmlns="http://www.w3.org/2000/svg">
    <style>
        @import url('https://fonts.googleapis.com/css2?family=Inter:wght@400;600;700&amp;display=swap');
        .text { font-family: 'Inter', system-ui, sans-serif; }
        .label { font-size: 12px; font-weight: 600; fill: #94a3b8; }
        .title { font-size: 24px; font-weight: 700; fill: #f8fafc; }
        .subtitle { font-size: 14px; fill: #38bdf8; font-weight: 600; letter-spacing: 1px; text-transform: uppercase; }
    </style>
    
    <defs>
        <linearGradient id="bg_grad" x1="0" y1="0" x2="850" y2="420" gradientUnits="userSpaceOnUse">
            <stop stop-color="#030712"/>
            <stop offset="1" stop-color="#0f172a"/>
        </linearGradient>
        <linearGradient id="poly_grad" x1="250" y1="100" x2="250" y2="340" gradientUnits="userSpaceOnUse">
            <stop stop-color="#38bdf8" stop-opacity="0.6"/>
            <stop offset="1" stop-color="#8b5cf6" stop-opacity="0.4"/>
        </linearGradient>
        <filter id="glow" x="-20%" y="-20%" width="140%" height="140%">
            <feGaussianBlur stdDeviation="3" result="blur" />
            <feComposite in="SourceGraphic" in2="blur" operator="over" />
        </filter>
    </defs>
    
    <!-- Background Card -->
    <rect width="850" height="420" rx="24" fill="url(#bg_grad)" />
    <rect x="0.5" y="0.5" width="849" height="419" rx="23.5" stroke="rgba(255,255,255,0.05)" />
    
    <!-- Header -->
    <text x="40" y="60" class="text title">Technical Arsenal</text>
    <text x="40" y="85" class="text subtitle">Dynamic Language Distribution</text>
    <rect x="40" y="95" width="80" height="4" rx="2" fill="#38bdf8" />
    
    <!-- Status Indicator -->
    <g transform="translate(670, 55)">
        <circle cx="0" cy="0" r="4" fill="#10b981">
            <animate attributeName="opacity" values="1;0.4;1" dur="3s" repeatCount="indefinite" />
        </circle>
        <text x="15" y="5" class="text label" fill="#10b981">Live Ecosystem Data</text>
    </g>

    <!-- Radar Chart Grid -->
    <g>
    <circle cx="250" cy="220" r="30.0" stroke="rgba(148, 163, 184, 0.15)" stroke-width="1" fill="none" /><circle cx="250" cy="220" r="60.0" stroke="rgba(148, 163, 184, 0.15)" stroke-width="1" fill="none" /><circle cx="250" cy="220" r="90.0" stroke="rgba(148, 163, 184, 0.15)" stroke-width="1" fill="none" /><circle cx="250" cy="220" r="120.0" stroke="rgba(148, 163, 184, 0.15)" stroke-width="1" fill="none" /><line x1="250" y1="220" x2="250.0" y2="100.0" stroke="rgba(148, 163, 184, 0.15)" stroke-width="1" /><text x="250.0" y="75.0" class="text label" text-anchor="middle">Python</text><line x1="250" y1="220" x2="353.92304845413264" y2="160.0" stroke="rgba(148, 163, 184, 0.15)" stroke-width="1" /><text x="379.9038105676658" y="150.0" class="text label" text-anchor="start">PHP</text><line x1="250" y1="220" x2="353.92304845413264" y2="280.0" stroke="rgba(148, 163, 184, 0.15)" stroke-width="1" /><text x="379.9038105676658" y="300.0" class="text label" text-anchor="start">JavaScript</text><line x1="250" y1="220" x2="250.0" y2="340.0" stroke="rgba(148, 163, 184, 0.15)" stroke-width="1" /><text x="250.0" y="375.0" class="text label" text-anchor="middle">TypeScript</text><line x1="250" y1="220" x2="146.0769515458674" y2="280.00000000000006" stroke="rgba(148, 163, 184, 0.15)" stroke-width="1" /><text x="120.09618943233423" y="300.00000000000006" class="text label" text-anchor="end">Blade</text><line x1="250" y1="220" x2="146.0769515458673" y2="160.00000000000009" stroke="rgba(148, 163, 184, 0.15)" stroke-width="1" /><text x="120.09618943233414" y="150.0000000000001" class="text label" text-anchor="end">HTML</text>
        <polygon points="250.0,100.0 331.18988160479114,173.125 308.45671475544964,253.75 250.0,282.25 200.636551984287,248.50000000000003 205.18318535415528,194.12500000000003" fill="url(#poly_grad)" stroke="#38bdf8" stroke-width="2" filter="url(#glow)">
            <animate attributeName="opacity" values="0.7;0.9;0.7" dur="4s" repeatCount="indefinite" />
        </polygon>
        </g><g transform="translate(500, 140)">
        <g transform="translate(0, 0)">
            <text x="0" y="0" class="text label" fill="#f8fafc">Python</text>
            <text x="250" y="0" class="text label" text-anchor="end" fill="#94a3b8">16 Projects</text>
            <rect x="0" y="10" width="250" height="6" rx="3" fill="rgba(255,255,255,0.05)" />
            <rect x="0" y="10" width="237.5" height="6" rx="3" fill="#38bdf8">
                <animate attributeName="width" from="0" to="237.5" dur="1s" fill="freeze" />
            </rect>
        </g>
        
        <g transform="translate(0, 45)">
            <text x="0" y="0" class="text label" fill="#f8fafc">PHP</text>
            <text x="250" y="0" class="text label" text-anchor="end" fill="#94a3b8">11 Projects</text>
            <rect x="0" y="10" width="250" height="6" rx="3" fill="rgba(255,255,255,0.05)" />
            <rect x="0" y="10" width="194.53125000000003" height="6" rx="3" fill="#38bdf8">
                <animate attributeName="width" from="0" to="194.53125000000003" dur="1s" fill="freeze" />
            </rect>
        </g>
        
        <g transform="translate(0, 90)">
            <text x="0" y="0" class="text label" fill="#f8fafc">JavaScript</text>
            <text x="250" y="0" class="text label" text-anchor="end" fill="#94a3b8">6 Projects</text>
            <rect x="0" y="10" width="250" height="6" rx="3" fill="rgba(255,255,255,0.05)" />
            <rect x="0" y="10" width="151.56250000000003" height="6" rx="3" fill="#38bdf8">
                <animate attributeName="width" from="0" to="151.56250000000003" dur="1s" fill="freeze" />
            </rect>
        </g>
        
        <g transform="translate(0, 135)">
            <text x="0" y="0" class="text label" fill="#f8fafc">TypeScript</text>
            <text x="250" y="0" class="text label" text-anchor="end" fill="#94a3b8">5 Projects</text>
            <rect x="0" y="10" width="250" height="6" rx="3" fill="rgba(255,255,255,0.05)" />
            <rect x="0" y="10" width="142.96875" height="6" rx="3" fill="#38bdf8">
                <animate attributeName="width" from="0" to="142.96875" dur="1s" fill="freeze" />
            </rect>
        </g>
        
        <g transform="translate(0, 180)">
            <text x="0" y="0" class="text label" fill="#f8fafc">Blade</text>
            <text x="250" y="0" class="text label" text-anchor="end" fill="#94a3b8">4 Projects</text>
            <rect x="0" y="10" width="250" height="6" rx="3" fill="rgba(255,255,255,0.05)" />
            <rect x="0" y="10" width="134.37500000000003" height="6" rx="3" fill="#38bdf8">
                <animate attributeName="width" from="0" to="134.37500000000003" dur="1s" fill="freeze" />
            </rect>
        </g>
        
        <g transform="translate(0, 225)">
            <text x="0" y="0" class="text label" fill="#f8fafc">HTML</text>
            <text x="250" y="0" class="text label" text-anchor="end" fill="#94a3b8">3 Projects</text>
            <rect x="0" y="10" width="250" height="6" rx="3" fill="rgba(255,255,255,0.05)" />
            <rect x="0" y="10" width="125.78125000000001" height="6" rx="3" fill="#38bdf8">
                <animate attributeName="width" from="0" to="125.78125000000001" dur="1s" fill="freeze" />
            </rect>
        </g>
        </g>
    <text x="810" y="390" class="text label" text-anchor="end" fill="#94a3b8">Last Updated: 2026-05-12 12:48 • Powered by GitHub API</text>
    </svg>